<svg width="11" height="11" viewBox="0 0 11 11" fill="none" xmlns="http://www.w3.org/2000/svg">
<g id="Order-Status">
<rect width="1920" height="4289" transform="translate(-1095 -345)" fill="white"/>
<g id="Inner-main">
<path id="Rectangle 161" d="M-8.5 -8C-8.5 -12.1421 -5.14214 -15.5 -1 -15.5H194.5V25.5H-1C-5.14214 25.5 -8.5 22.1421 -8.5 18V-8Z" fill="white" stroke="#9C9C9C"/>
<g id="&#240;&#159;&#166;&#134; icon &#34;magnifying glass&#34;">
<path id="Vector" d="M4.76932 0.0136266C2.13938 0.0136266 0 2.15301 0 4.78295C0 7.41289 2.13938 9.55227 4.76932 9.55227C5.57329 9.55227 6.36364 9.3615 7.03134 8.99358C7.08483 9.05794 7.14413 9.11724 7.20849 9.17072L8.57115 10.5334C8.69698 10.675 8.85041 10.7893 9.02204 10.8695C9.19366 10.9496 9.37986 10.9938 9.56919 10.9994C9.75852 11.005 9.94699 10.9718 10.123 10.9019C10.2991 10.832 10.459 10.7268 10.5929 10.5929C10.7268 10.459 10.832 10.2991 10.9019 10.123C10.9718 9.94699 11.005 9.75852 10.9994 9.56919C10.9938 9.37986 10.9496 9.19366 10.8695 9.02204C10.7893 8.85041 10.675 8.69698 10.5334 8.57115L9.17072 7.20849C9.10435 7.14209 9.03128 7.08272 8.9527 7.03134C9.32062 6.36364 9.55227 5.58692 9.55227 4.76932C9.55227 2.13938 7.41289 0 4.78295 0L4.76932 0.0136266ZM4.76932 1.37629C6.66342 1.37629 8.17598 2.88885 8.17598 4.78295C8.17598 5.68231 7.84894 6.51353 7.27662 7.12673C7.263 7.14036 7.24937 7.15398 7.23574 7.16761C7.17138 7.22109 7.11208 7.28039 7.0586 7.34476C6.45902 7.88982 5.64143 8.20323 4.7557 8.20323C2.86159 8.20323 1.34904 6.69068 1.34904 4.79657C1.34904 2.90247 2.86159 1.38992 4.7557 1.38992L4.76932 1.37629Z" fill="#9C9C9C"/>
</g>
</g>
</g>
</svg>
