<svg xmlns="http://www.w3.org/2000/svg" width="40" height="40" viewBox="0 0 40 40" fill="none">
  <path d="M19.9848 30.5419C17.8968 30.5419 15.8557 29.9228 14.1196 28.7628C12.3835 27.6027 11.0304 25.9539 10.2314 24.0249C9.43231 22.0958 9.22324 19.9731 9.63059 17.9253C10.0379 15.8774 11.0434 13.9963 12.5198 12.5198C13.9963 11.0434 15.8774 10.0379 17.9253 9.63059C19.9731 9.22324 22.0958 9.43231 24.0249 10.2314C25.9539 11.0304 27.6027 12.3835 28.7628 14.1196C29.9228 15.8557 30.5419 17.8968 30.5419 19.9848C30.5387 22.7838 29.4254 25.4671 27.4462 27.4462C25.4671 29.4254 22.7838 30.5387 19.9848 30.5419ZM19.9848 10.6008C18.1288 10.6008 16.3145 11.1511 14.7713 12.1823C13.2281 13.2134 12.0253 14.679 11.3151 16.3937C10.6048 18.1084 10.419 19.9953 10.7811 21.8156C11.1432 23.6359 12.0369 25.308 13.3493 26.6204C14.6617 27.9328 16.3338 28.8265 18.1541 29.1886C19.9744 29.5507 21.8613 29.3649 23.576 28.6546C25.2907 27.9444 26.7563 26.7416 27.7874 25.1984C28.8186 23.6552 29.3689 21.8408 29.3689 19.9848C29.366 17.4969 28.3764 15.1118 26.6171 13.3525C24.8579 11.5933 22.4728 10.6037 19.9848 10.6008Z" fill="black"/>
  <path d="M19.9848 39.9257C17.2507 39.9217 14.5464 39.3576 12.0387 38.2682C9.53097 37.1788 7.27307 35.5871 5.40423 33.5914C1.85827 29.8151 -0.0790108 24.8071 0.00246991 19.6275C0.0839506 14.448 2.1778 9.50341 5.84079 5.8405C9.50378 2.17758 14.4484 0.0838363 19.628 0.00246337C24.8075 -0.0789096 29.8155 1.85848 33.5917 5.40452C35.5875 7.27315 37.1792 9.53093 38.2686 12.0385C39.3581 14.5462 39.9221 17.2504 39.926 19.9845C39.935 22.3178 39.5313 24.6344 38.7336 26.8272C38.3316 27.8886 37.5701 28.7753 36.5816 29.333C35.5932 29.8907 34.4404 30.0841 33.3241 29.8794C32.2078 29.6747 31.1986 29.0849 30.4724 28.2127C29.7461 27.3406 29.3487 26.2414 29.3495 25.1064V10.0139H30.5225V25.1064C30.5229 25.9649 30.8238 26.7963 31.373 27.4562C31.9221 28.1161 32.685 28.563 33.5291 28.7194C34.3733 28.8757 35.2456 28.7317 35.9947 28.3123C36.7438 27.8929 37.3225 27.2245 37.6304 26.4231C38.3813 24.3599 38.7613 22.1801 38.7529 19.9845C38.7494 17.4108 38.2184 14.8652 37.1928 12.5048C36.1672 10.1443 34.6688 8.0191 32.7899 6.26023C29.2365 2.91863 24.5216 1.09177 19.6443 1.16671C14.7671 1.24165 10.1106 3.21251 6.66144 6.66171C3.21231 10.1109 1.24155 14.7675 1.16672 19.6447C1.09188 24.522 2.91885 29.2368 6.26053 32.7902C7.96344 34.618 10.0147 36.0867 12.2936 37.1099C14.5725 38.1332 17.0331 38.6903 19.5305 38.7486C22.0279 38.8068 24.5118 38.365 26.8359 37.4491C29.1601 36.5332 31.2776 35.1618 33.0638 33.4154L33.8849 34.2542C30.1707 37.8885 25.1813 39.9243 19.9848 39.9257Z" fill="black"/>
</svg>