<svg xmlns="http://www.w3.org/2000/svg" width="78" height="37" viewBox="0 0 78 37" fill="none">
  <path d="M68.2694 31.981C66.5278 31.981 64.9226 31.7082 63.4538 31.1627C62.006 30.5961 60.7365 29.7988 59.6454 28.7706C58.5752 27.7424 57.7359 26.5359 57.1274 25.151C56.5399 23.7661 56.2461 22.2448 56.2461 20.5872C56.2461 18.9295 56.5399 17.4082 57.1274 16.0234C57.7359 14.6385 58.5857 13.4319 59.6768 12.4038C60.768 11.3756 62.0479 10.5887 63.5167 10.0432C64.9856 9.47663 66.6013 9.19336 68.3638 9.19336C70.3153 9.19336 72.0674 9.5186 73.6201 10.1691C75.1938 10.8195 76.5158 11.7638 77.5859 13.0018L74.3125 16.0234C73.5152 15.184 72.6444 14.565 71.7001 14.1664C70.7559 13.7467 69.7277 13.5369 68.6156 13.5369C67.5455 13.5369 66.5698 13.7047 65.6885 14.0405C64.8072 14.3762 64.0413 14.8588 63.3908 15.4883C62.7613 16.1178 62.2682 16.8627 61.9115 17.723C61.5758 18.5833 61.4079 19.538 61.4079 20.5872C61.4079 21.6154 61.5758 22.5596 61.9115 23.4199C62.2682 24.2802 62.7613 25.0356 63.3908 25.6861C64.0413 26.3156 64.7967 26.7982 65.657 27.1339C66.5383 27.4696 67.5035 27.6375 68.5527 27.6375C69.5599 27.6375 70.5356 27.4801 71.4798 27.1654C72.445 26.8297 73.3788 26.2736 74.2811 25.4972L77.1767 29.1798C75.9807 30.082 74.5853 30.7745 72.9906 31.2571C71.4169 31.7397 69.8431 31.981 68.2694 31.981ZM72.5185 28.5188V20.241H77.1767V29.1798L72.5185 28.5188Z" fill="black"/>
  <path d="M47.0015 31.981C45.2389 31.981 43.5498 31.7502 41.9341 31.2886C40.3184 30.806 39.0175 30.187 38.0312 29.4316L39.7624 25.5917C40.7066 26.2631 41.8187 26.8192 43.0987 27.2598C44.3996 27.6795 45.7111 27.8893 47.033 27.8893C48.0402 27.8893 48.848 27.7949 49.4566 27.606C50.086 27.3962 50.5477 27.1129 50.8414 26.7562C51.1352 26.3995 51.2821 25.9903 51.2821 25.5287C51.2821 24.9412 51.0513 24.4795 50.5896 24.1438C50.128 23.7871 49.5195 23.5038 48.7641 23.294C48.0087 23.0632 47.1694 22.8534 46.2461 22.6645C45.3439 22.4547 44.4311 22.2029 43.5078 21.9091C42.6056 21.6154 41.7767 21.2377 41.0213 20.776C40.266 20.3144 39.647 19.7059 39.1643 18.9505C38.7027 18.1951 38.4719 17.2299 38.4719 16.0548C38.4719 14.7958 38.8076 13.6523 39.4791 12.6241C40.1715 11.5749 41.1997 10.7461 42.5636 10.1376C43.9485 9.50811 45.6796 9.19336 47.7569 9.19336C49.1418 9.19336 50.5057 9.36122 51.8486 9.69695C53.1915 10.0117 54.3771 10.4943 55.4053 11.1448L53.8315 15.0162C52.8034 14.4286 51.7752 13.9985 50.747 13.7257C49.7188 13.4319 48.7116 13.2851 47.7254 13.2851C46.7392 13.2851 45.9314 13.4005 45.3019 13.6313C44.6724 13.8621 44.2213 14.1664 43.9485 14.544C43.6757 14.9008 43.5393 15.3204 43.5393 15.803C43.5393 16.3696 43.7701 16.8312 44.2318 17.1879C44.6934 17.5236 45.3019 17.7964 46.0573 18.0063C46.8127 18.2161 47.6415 18.4259 48.5438 18.6358C49.467 18.8456 50.3798 19.0869 51.2821 19.3597C52.2053 19.6325 53.0447 19.9997 53.8001 20.4613C54.5554 20.9229 55.1639 21.5314 55.6256 22.2868C56.1082 23.0422 56.3495 23.9969 56.3495 25.151C56.3495 26.389 56.0033 27.5221 55.3108 28.5503C54.6184 29.5784 53.5797 30.4073 52.1948 31.0368C50.8309 31.6663 49.0998 31.981 47.0015 31.981Z" fill="black"/>
  <path d="M26.5845 19.4868H37.16V23.5785H26.5845V19.4868ZM26.9622 31.6045H21.8633V9.57227H38.5134V13.664H26.9622V31.6045Z" fill="black"/>
  <path d="M0 31.6045V9.57227H10.7643C13.5341 9.57227 15.6114 10.0968 16.9963 11.146C18.4022 12.1952 19.1051 13.58 19.1051 15.3007C19.1051 16.4547 18.8218 17.4619 18.2553 18.3222C17.6888 19.1615 16.9124 19.812 15.9262 20.2736C14.94 20.7353 13.8069 20.9661 12.5269 20.9661L13.1249 19.6756C14.5098 19.6756 15.7373 19.9064 16.8075 20.3681C17.8776 20.8087 18.7064 21.4697 19.294 22.351C19.9025 23.2323 20.2067 24.3129 20.2067 25.5929C20.2067 27.4813 19.4618 28.9606 17.972 30.0308C16.4822 31.0799 14.2895 31.6045 11.3938 31.6045H0ZM5.06742 27.7646H11.0161C12.3381 27.7646 13.3348 27.5548 14.0062 27.1351C14.6987 26.6945 15.0449 26.002 15.0449 25.0578C15.0449 24.1345 14.6987 23.4526 14.0062 23.0119C13.3348 22.5503 12.3381 22.3195 11.0161 22.3195H4.68972V18.6055H10.1348C11.3728 18.6055 12.3171 18.3957 12.9676 17.976C13.639 17.5354 13.9747 16.8744 13.9747 15.9931C13.9747 15.1328 13.639 14.4928 12.9676 14.0731C12.3171 13.6325 11.3728 13.4122 10.1348 13.4122H5.06742V27.7646Z" fill="black"/>
  <path d="M21.1016 0.425781L25.3278 1.00589L20.5061 36.1328L16.2799 35.5527L21.1016 0.425781Z" fill="white"/>
  <path d="M21.4844 9.49609L22.0631 9.57554L18.9518 32.242L18.3731 32.1625L21.4844 9.49609Z" fill="black"/>
</svg>