<svg xmlns="http://www.w3.org/2000/svg" width="102" height="48" viewBox="0 0 102 48" fill="none">
  <path d="M89.3871 42.2195C87.1068 42.2195 85.005 41.8623 83.0818 41.148C81.1861 40.4062 79.524 39.3622 78.0953 38.016C76.6941 36.6698 75.5952 35.09 74.7984 33.2767C74.0292 31.4635 73.6445 29.4716 73.6445 27.3012C73.6445 25.1307 74.0292 23.1389 74.7984 21.3256C75.5952 19.5123 76.7079 17.9325 78.1365 16.5863C79.5652 15.2401 81.2411 14.2098 83.1643 13.4955C85.0874 12.7537 87.2029 12.3828 89.5107 12.3828C92.0658 12.3828 94.3599 12.8087 96.3929 13.6603C98.4535 14.512 100.184 15.7484 101.586 17.3693L97.2996 21.3256C96.2556 20.2266 95.1154 19.4161 93.8791 18.8941C92.6428 18.3447 91.2965 18.0699 89.8404 18.0699C88.4392 18.0699 87.1617 18.2897 86.0078 18.7293C84.8539 19.1689 83.8511 19.8008 82.9994 20.625C82.1752 21.4492 81.5296 22.4245 81.0625 23.551C80.6229 24.6774 80.4031 25.9275 80.4031 27.3012C80.4031 28.6474 80.6229 29.8837 81.0625 31.0101C81.5296 32.1366 82.1752 33.1256 82.9994 33.9773C83.8511 34.8015 84.8402 35.4334 85.9666 35.873C87.1205 36.3126 88.3843 36.5324 89.758 36.5324C91.0767 36.5324 92.3543 36.3263 93.5906 35.9142C94.8544 35.4746 96.077 34.7466 97.2584 33.7301L101.05 38.5517C99.4838 39.7331 97.6567 40.6397 95.5687 41.2716C93.5082 41.9035 91.4476 42.2195 89.3871 42.2195ZM94.9506 37.6863V26.8478H101.05V38.5517L94.9506 37.6863Z" fill="black"/>
  <path d="M61.54 42.2195C59.2322 42.2195 57.0206 41.9173 54.9051 41.3129C52.7896 40.681 51.0862 39.8705 49.7949 38.8814L52.0615 33.8537C53.2978 34.7329 54.754 35.4609 56.4299 36.0379C58.1333 36.5873 59.8504 36.8621 61.5812 36.8621C62.9 36.8621 63.9577 36.7384 64.7545 36.4912C65.5787 36.2164 66.1831 35.8455 66.5678 35.3785C66.9524 34.9114 67.1447 34.3757 67.1447 33.7713C67.1447 33.002 66.8425 32.3976 66.2381 31.958C65.6336 31.4909 64.8369 31.12 63.8478 30.8453C62.8588 30.5431 61.7598 30.2683 60.551 30.0211C59.3696 29.7463 58.1745 29.4166 56.9656 29.032C55.7842 28.6474 54.699 28.1528 53.71 27.5484C52.7209 26.944 51.9104 26.1473 51.2785 25.1582C50.6741 24.1691 50.3719 22.9053 50.3719 21.3668C50.3719 19.7184 50.8115 18.221 51.6906 16.8748C52.5973 15.5011 53.9435 14.4159 55.7293 13.6191C57.5426 12.7949 59.8092 12.3828 62.5291 12.3828C64.3424 12.3828 66.1282 12.6026 67.8865 13.0422C69.6448 13.4543 71.1971 14.0862 72.5433 14.9379L70.4828 20.0068C69.1366 19.2376 67.7903 18.6743 66.4441 18.3172C65.0979 17.9325 63.7792 17.7402 62.4879 17.7402C61.1966 17.7402 60.1389 17.8913 59.3146 18.1935C58.4904 18.4958 57.8997 18.8941 57.5426 19.3887C57.1854 19.8557 57.0068 20.4052 57.0068 21.0371C57.0068 21.7789 57.309 22.3833 57.9135 22.8504C58.5179 23.29 59.3146 23.6471 60.3037 23.9219C61.2928 24.1966 62.378 24.4713 63.5594 24.7461C64.7682 25.0208 65.9633 25.3368 67.1447 25.6939C68.3536 26.0511 69.4525 26.5319 70.4416 27.1363C71.4306 27.7407 72.2274 28.5375 72.8318 29.5265C73.4637 30.5156 73.7797 31.7657 73.7797 33.2767C73.7797 34.8977 73.3263 36.3813 72.4197 37.7275C71.5131 39.0737 70.1531 40.159 68.3398 40.9832C66.554 41.8074 64.2874 42.2195 61.54 42.2195Z" fill="black"/>
  <path d="M34.8086 25.8603H48.6554V31.2178H34.8086V25.8603ZM35.3031 41.7265H28.627V12.8789H50.4275V18.2363H35.3031V41.7265Z" fill="black"/>
  <path d="M0 41.7265V12.8789H14.0941C17.7207 12.8789 20.4406 13.5658 22.2539 14.9395C24.0946 16.3131 25.015 18.1264 25.015 20.3793C25.015 21.8904 24.6441 23.2091 23.9023 24.3355C23.1605 25.4345 22.144 26.2862 20.8527 26.8906C19.5614 27.495 18.0778 27.7972 16.4019 27.7972L17.1849 26.1076C18.9982 26.1076 20.6054 26.4098 22.0066 27.0142C23.4078 27.5912 24.493 28.4566 25.2623 29.6105C26.059 30.7644 26.4574 32.1793 26.4574 33.8553C26.4574 36.3279 25.4821 38.2648 23.5314 39.666C21.5808 41.0397 18.7097 41.7265 14.9183 41.7265H0ZM6.63495 36.6988H14.4238C16.1547 36.6988 17.4597 36.4241 18.3388 35.8746C19.2455 35.2976 19.6988 34.391 19.6988 33.1547C19.6988 31.9458 19.2455 31.0529 18.3388 30.476C17.4597 29.8715 16.1547 29.5693 14.4238 29.5693H6.14042V24.7064H13.2699C14.8909 24.7064 16.1272 24.4317 16.9789 23.8822C17.8581 23.3053 18.2976 22.4398 18.2976 21.2859C18.2976 20.1595 17.8581 19.3215 16.9789 18.7721C16.1272 18.1951 14.8909 17.9066 13.2699 17.9066H6.63495V36.6988Z" fill="black"/>
  <path d="M27.6299 0.90625L33.1634 1.66581L26.8502 47.6588L21.3167 46.8992L27.6299 0.90625Z" fill="white"/>
  <path d="M28.1309 12.7812L28.8887 12.8853L24.8149 42.5632L24.0571 42.4592L28.1309 12.7812Z" fill="black"/>
</svg>