 <svg xmlns="http://www.w3.org/2000/svg" width="14" height="19" viewBox="0 0 14 19" fill="none">
                                    <path
                                      d="M1.02103 2.77521H4.90502V1.78442C4.90522 1.49679 5.0213 1.22098 5.22779 1.01753C5.43429 0.814078 5.71433 0.699599 6.00645 0.699219H7.99421C8.28633 0.699599 8.56637 0.814078 8.77287 1.01753C8.97936 1.22098 9.09545 1.49679 9.09564 1.78442V2.77521H12.9796C13.2504 2.77521 13.51 2.88111 13.7015 3.06962C13.8929 3.25812 14.0005 3.51378 14.0005 3.78036V4.96501C14.0004 5.21951 13.9022 5.4645 13.7258 5.65052C13.5494 5.83654 13.3079 5.94974 13.05 5.96729V16.6215C13.0495 17.1206 12.8481 17.5991 12.4898 17.9521C12.1315 18.3052 11.6457 18.5039 11.1388 18.5047H2.86258C2.35572 18.5039 1.86988 18.3052 1.51161 17.9521C1.15334 17.5991 0.951874 17.1206 0.951392 16.6215V5.96836C0.693394 5.95099 0.451705 5.83786 0.275144 5.65183C0.0985832 5.46579 0.00030899 5.22071 0.000172615 4.96608V3.78144C2.86102e-05 3.64935 0.0263271 3.51853 0.0775661 3.39646C0.128804 3.27438 0.203979 3.16345 0.298788 3.07C0.393598 2.97655 0.506184 2.90241 0.630111 2.85183C0.754039 2.80125 0.886876 2.77521 1.02103 2.77521ZM8.51229 1.78442C8.5122 1.64909 8.4576 1.51933 8.36049 1.42357C8.26337 1.32781 8.13165 1.27388 7.99421 1.27359H6.00645C5.86901 1.27388 5.73729 1.32781 5.64017 1.42357C5.54306 1.51933 5.48847 1.64909 5.48837 1.78442V2.77521H8.51229V1.78442ZM1.53401 16.6215C1.5343 16.9683 1.67424 17.3008 1.92316 17.5462C2.17207 17.7916 2.50964 17.9297 2.86185 17.9304H11.1381C11.4903 17.9297 11.8279 17.7916 12.0768 17.5462C12.3257 17.3008 12.4656 16.9683 12.4659 16.6215V5.97123H1.53401V16.6215ZM0.583519 4.96608C0.583519 5.08033 0.629614 5.1899 0.711662 5.27069C0.793712 5.35148 0.904994 5.39686 1.02103 5.39686H12.9796C13.0957 5.39686 13.2069 5.35148 13.289 5.27069C13.371 5.1899 13.4171 5.08033 13.4171 4.96608V3.78144C13.4171 3.66719 13.371 3.55762 13.289 3.47684C13.2069 3.39605 13.0957 3.35066 12.9796 3.35066H1.02103C0.904994 3.35066 0.793712 3.39605 0.711662 3.47684C0.629614 3.55762 0.583519 3.66719 0.583519 3.78144V4.96608Z"
                                      fill="black"
                                    />
                                    <path
                                      d="M9.28889 16.1916C9.21154 16.1916 9.13735 16.1613 9.08265 16.1075C9.02795 16.0536 8.99722 15.9806 8.99722 15.9044V7.95906C8.99722 7.88289 9.02795 7.80985 9.08265 7.75599C9.13735 7.70213 9.21154 7.67188 9.28889 7.67188C9.36625 7.67188 9.44044 7.70213 9.49514 7.75599C9.54984 7.80985 9.58057 7.88289 9.58057 7.95906V15.9044C9.58057 15.9806 9.54984 16.0536 9.49514 16.1075C9.44044 16.1613 9.36625 16.1916 9.28889 16.1916Z"
                                      fill="black"
                                    />
                                    <path
                                      d="M4.83479 16.1916C4.75744 16.1916 4.68325 16.1613 4.62855 16.1075C4.57385 16.0536 4.54312 15.9806 4.54312 15.9044V7.95906C4.54312 7.88289 4.57385 7.80985 4.62855 7.75599C4.68325 7.70213 4.75744 7.67188 4.83479 7.67188C4.91215 7.67188 4.98634 7.70213 5.04104 7.75599C5.09574 7.80985 5.12646 7.88289 5.12646 7.95906V15.9044C5.12646 15.9806 5.09574 16.0536 5.04104 16.1075C4.98634 16.1613 4.91215 16.1916 4.83479 16.1916Z"
                                      fill="black"
                                    />
                                  </svg>