<svg xmlns="http://www.w3.org/2000/svg" width="17" height="26" viewBox="0 0 17 26" fill="none">
  <path d="M11.3025 8.99376C11.3025 9.6279 11.1144 10.2478 10.7621 10.7751C10.4098 11.3023 9.90903 11.7133 9.32316 11.956C8.73729 12.1987 8.09261 12.2622 7.47065 12.1384C6.84869 12.0147 6.27738 11.7094 5.82897 11.2609C5.38057 10.8125 5.0752 10.2412 4.95148 9.61927C4.82777 8.99731 4.89126 8.35263 5.13394 7.76676C5.37662 7.18089 5.78757 6.68013 6.31484 6.32782C6.84212 5.97551 7.46202 5.78746 8.09617 5.78746C8.94608 5.78893 9.76076 6.12721 10.3617 6.72819C10.9627 7.32916 11.301 8.14385 11.3025 8.99376ZM16.1979 9.06864C16.1916 10.5529 15.7802 12.0072 15.0079 13.2747C14.2356 14.5421 13.1317 15.5746 11.8156 16.2606L8.09617 25.0308L4.37676 16.2606C3.10005 15.5999 2.02219 14.6114 1.25387 13.3964C0.485544 12.1814 0.0544397 10.7839 0.00482604 9.34721C-0.0447876 7.91055 0.288877 6.48657 0.971556 5.22149C1.65424 3.95642 2.66133 2.89585 3.88941 2.14868C5.1175 1.40151 6.52233 0.994674 7.95963 0.969948C9.39694 0.945223 10.8149 1.3035 12.068 2.00798C13.321 2.71247 14.364 3.73778 15.0898 4.97862C15.8156 6.21946 16.198 7.63112 16.1979 9.06864ZM12.6893 8.99376C12.6893 8.08533 12.4199 7.1973 11.9152 6.44197C11.4105 5.68664 10.6931 5.09793 9.85387 4.75029C9.01459 4.40265 8.09107 4.31169 7.2001 4.48891C6.30912 4.66614 5.49071 5.10359 4.84836 5.74595C4.206 6.3883 3.76855 7.20671 3.59132 8.09769C3.4141 8.98866 3.50506 9.91218 3.8527 10.7515C4.20034 11.5907 4.78905 12.3081 5.54438 12.8128C6.29971 13.3175 7.18774 13.5869 8.09617 13.5869C9.31388 13.5854 10.4813 13.101 11.3424 12.2399C12.2034 11.3789 12.6878 10.2115 12.6893 8.99376Z" fill="#FF0000"/>
</svg>