<svg xmlns="http://www.w3.org/2000/svg" width="28" height="37" viewBox="0 0 28 37" fill="none">
  <path d="M14.0002 31.5418C14.4445 31.5418 14.805 31.1785 14.805 30.7309V27.081C16.0843 26.6889 17.0183 25.49 17.0183 24.0746C17.0183 22.3421 15.6191 20.9323 13.8996 20.9323C12.1801 20.9323 10.7809 22.3421 10.7809 24.0746C10.7809 25.563 11.8143 26.8102 13.1954 27.1329V30.7305C13.1954 31.1785 13.5559 31.5418 14.0002 31.5418ZM12.3906 24.0746C12.3906 23.2361 13.0678 22.5541 13.8996 22.5541C14.7314 22.5541 15.4086 23.2361 15.4086 24.0746C15.4086 24.913 14.7314 25.595 13.8996 25.595C13.0678 25.595 12.3906 24.913 12.3906 24.0746ZM27.1952 21.6755C27.6394 21.6755 28 21.3122 28 20.8646V17.8497C28 16.0661 26.5598 14.615 24.7892 14.615H22.1832V8.2461C22.1832 3.69935 18.512 0 13.9998 0C9.48759 0 5.81682 3.69935 5.81682 8.2461V14.6154H3.21082C1.44062 14.6154 0 16.0665 0 17.8501V33.7653C0 35.5489 1.44022 37 3.21082 37H24.7892C26.5594 37 28 35.5489 28 33.7653V25.8655C28 25.4178 27.6394 25.0546 27.1952 25.0546C26.7509 25.0546 26.3904 25.4178 26.3904 25.8655V33.7653C26.3904 34.6545 25.6721 35.3782 24.7892 35.3782H3.21082C2.32834 35.3782 1.60963 34.6549 1.60963 33.7653V17.8497C1.60963 16.9605 2.32793 16.2368 3.21082 16.2368H24.7892C25.6717 16.2368 26.3904 16.9601 26.3904 17.8497V20.8646C26.3904 21.3126 26.7509 21.6755 27.1952 21.6755ZM20.5739 14.6154H7.42645V8.2461C7.42645 4.59337 10.3753 1.62181 14.0002 1.62181C17.6251 1.62181 20.5739 4.59337 20.5739 8.2461V14.6154Z" fill="black"/>
</svg>