<svg xmlns="http://www.w3.org/2000/svg" width="16" height="21" viewBox="0 0 16 21" fill="none">
  <path d="M12.3079 5.89534V5.01241C12.3079 2.66808 10.3694 0.75 8.00012 0.75C5.63085 0.75 3.69236 2.66808 3.69236 5.01241V5.89534H1.23079H0V7.11317V20.2049C0 20.5398 0.276927 20.8138 0.615394 20.8138H15.3848C15.7233 20.8138 16.0002 20.5398 16.0002 20.2049V7.11317V5.89534H14.7694H12.3079ZM4.92315 5.04286C4.92315 3.36834 6.30779 1.99828 8.00012 1.99828C9.69245 1.99828 11.0771 3.36834 11.0771 5.04286V5.92578H4.92315V5.04286ZM14.7694 19.5959H1.23079V7.11317H3.69236V11.1016H4.92315V7.11317H11.0771V11.1016H12.3079V7.11317H14.7694V19.5959Z" fill="black"/>
</svg>