<svg xmlns="http://www.w3.org/2000/svg" width="20" height="19" viewBox="0 0 20 19" fill="none">
  <path d="M10 1.26667C10.7417 1.26667 11.4667 1.48953 12.0834 1.90708C12.7001 2.32463 13.1807 2.91811 13.4645 3.61247C13.7484 4.30683 13.8226 5.07088 13.6779 5.80801C13.5333 6.54514 13.1761 7.22223 12.6517 7.75367C12.1272 8.28511 11.459 8.64703 10.7316 8.79365C10.0042 8.94028 9.25016 8.86502 8.56494 8.57741C7.87971 8.2898 7.29404 7.80274 6.88199 7.17783C6.46993 6.55293 6.25 5.81824 6.25 5.06667C6.25112 4.05919 6.64657 3.09331 7.34959 2.38092C8.05261 1.66852 9.00578 1.2678 10 1.26667ZM10 0C9.01109 0 8.0444 0.297155 7.22215 0.853887C6.3999 1.41062 5.75904 2.20193 5.3806 3.12774C5.00216 4.05355 4.90315 5.07229 5.09607 6.05512C5.289 7.03796 5.7652 7.94075 6.46447 8.64934C7.16373 9.35793 8.05464 9.84048 9.02455 10.036C9.99445 10.2315 10.9998 10.1311 11.9134 9.74766C12.827 9.36417 13.6079 8.71476 14.1573 7.88156C14.7068 7.04835 15 6.06876 15 5.06667C15 3.7229 14.4732 2.43418 13.5355 1.48399C12.5979 0.533808 11.3261 0 10 0ZM16.25 13.9333C16.9128 13.9341 17.5483 14.2012 18.0169 14.6762C18.4856 15.1511 18.7493 15.795 18.75 16.4667C18.7496 16.8025 18.6178 17.1245 18.3835 17.3619C18.1491 17.5994 17.8314 17.733 17.5 17.7333H2.5C2.16859 17.733 1.85087 17.5994 1.61653 17.3619C1.38219 17.1245 1.25037 16.8025 1.25 16.4667C1.25075 15.795 1.51438 15.1511 1.98306 14.6762C2.45174 14.2012 3.08719 13.9341 3.75 13.9333H16.25ZM16.25 12.6667H3.75C2.75544 12.6667 1.80161 13.067 1.09835 13.7797C0.395088 14.4923 0 15.4588 0 16.4667C0 17.1385 0.263392 17.7829 0.732233 18.258C1.20107 18.7331 1.83696 19 2.5 19H17.5C18.163 19 18.7989 18.7331 19.2678 18.258C19.7366 17.7829 20 17.1385 20 16.4667C20 15.4588 19.6049 14.4923 18.9017 13.7797C18.1984 13.067 17.2446 12.6667 16.25 12.6667Z" fill="black"/>
</svg>